HIERARCHY
ROOT Hips
{
	OFFSET -14.64140 90.27770 -84.91600
	CHANNELS 6 Xposition Yposition Zposition Zrotation Xrotation Yrotation
	JOINT Spine
	{
		OFFSET 0.00000 13.20850 -1.60436
		CHANNELS 3 Zrotation Xrotation Yrotation
		JOINT Spine1
		{
			OFFSET 0.00000 8.61716 0.00000
			CHANNELS 3 Zrotation Xrotation Yrotation
			JOINT Spine2
			{
				OFFSET 0.00000 8.61717 0.00000
				CHANNELS 3 Zrotation Xrotation Yrotation
				JOINT Spine3
				{
					OFFSET 0.00000 8.61717 0.00000
					CHANNELS 3 Zrotation Xrotation Yrotation
					JOINT Neck
					{
						OFFSET 0.00000 11.07920 1.10792
						CHANNELS 3 Zrotation Xrotation Yrotation
						JOINT Neck1
						{
							OFFSET 0.00000 7.08032 0.00000
							CHANNELS 3 Zrotation Xrotation Yrotation
							JOINT Head
							{
								OFFSET 0.00000 7.08031 0.00000
								CHANNELS 3 Zrotation Xrotation Yrotation
								End site
								{
									OFFSET 0.00000 0.00000 0.00000
								}
							}
						}
					}
					JOINT RightShoulder
					{
						OFFSET -0.01000 7.91373 5.19711
						CHANNELS 3 Zrotation Xrotation Yrotation
						JOINT RightArm
						{
							OFFSET -18.41580 0.00000 0.00000
							CHANNELS 3 Zrotation Xrotation Yrotation
							JOINT RightForeArm
							{
								OFFSET -29.11090 0.00000 0.00000
								CHANNELS 3 Zrotation Xrotation Yrotation
								JOINT RightHand
								{
									OFFSET -24.65040 0.00000 0.00000
									CHANNELS 3 Zrotation Xrotation Yrotation
									JOINT RightHandThumb1
									{
										OFFSET -5.35114 -0.85590 3.97906
										CHANNELS 3 Zrotation Xrotation Yrotation
										JOINT RightHandThumb2
										{
											OFFSET -4.52789 0.00000 0.00000
											CHANNELS 3 Zrotation Xrotation Yrotation
											JOINT RightHandThumb3
											{
												OFFSET -2.46976 0.00000 0.00000
												CHANNELS 3 Zrotation Xrotation Yrotation
												End site
												{
													OFFSET 0.00000 0.00000 0.00000
												}
											}
										}
									}
									JOINT RightHandIndex1
									{
										OFFSET -14.26970 0.00000 2.88139
										CHANNELS 3 Zrotation Xrotation Yrotation
										JOINT RightHandIndex2
										{
											OFFSET -5.48836 0.00000 0.00000
											CHANNELS 3 Zrotation Xrotation Yrotation
											JOINT RightHandIndex3
											{
												OFFSET -3.01859 0.00000 0.00000
												CHANNELS 3 Zrotation Xrotation Yrotation
												End site
												{
													OFFSET 0.00000 0.00000 0.00000
												}
											}
										}
									}
									JOINT RightHandMiddle1
									{
										OFFSET -14.26970 0.00000 -0.09147
										CHANNELS 3 Zrotation Xrotation Yrotation
										JOINT RightHandMiddle2
										{
											OFFSET -6.17441 0.00000 0.00000
											CHANNELS 3 Zrotation Xrotation Yrotation
											JOINT RightHandMiddle3
											{
												OFFSET -3.56743 0.00000 0.00000
												CHANNELS 3 Zrotation Xrotation Yrotation
												End site
												{
													OFFSET 0.00000 0.00000 0.00000
												}
											}
										}
									}
									JOINT RightHandRing1
									{
										OFFSET -12.69180 0.00000 -3.06433
										CHANNELS 3 Zrotation Xrotation Yrotation
										JOINT RightHandRing2
										{
											OFFSET -5.62556 0.00000 0.00000
											CHANNELS 3 Zrotation Xrotation Yrotation
											JOINT RightHandRing3
											{
												OFFSET -3.56744 0.00000 0.00000
												CHANNELS 3 Zrotation Xrotation Yrotation
												End site
												{
													OFFSET 0.00000 0.00000 0.00000
												}
											}
										}
									}
									JOINT RightHandPinky1
									{
										OFFSET -11.11390 0.00000 -6.03719
										CHANNELS 3 Zrotation Xrotation Yrotation
										JOINT RightHandPinky2
										{
											OFFSET -4.52789 0.00000 0.00000
											CHANNELS 3 Zrotation Xrotation Yrotation
											JOINT RightHandPinky3
											{
												OFFSET -2.46976 0.00000 0.00000
												CHANNELS 3 Zrotation Xrotation Yrotation
												End site
												{
													OFFSET 0.00000 0.00000 0.00000
												}
											}
										}
									}
								}
							}
						}
					}
					JOINT LeftShoulder
					{
						OFFSET 0.01000 7.91373 5.19711
						CHANNELS 3 Zrotation Xrotation Yrotation
						JOINT LeftArm
						{
							OFFSET 18.41580 0.00000 0.00000
							CHANNELS 3 Zrotation Xrotation Yrotation
							JOINT LeftForeArm
							{
								OFFSET 29.11090 0.00000 0.00000
								CHANNELS 3 Zrotation Xrotation Yrotation
								JOINT LeftHand
								{
									OFFSET 24.65040 0.00000 0.00000
									CHANNELS 3 Zrotation Xrotation Yrotation
									JOINT LeftHandThumb1
									{
										OFFSET 5.35114 -0.85590 3.97906
										CHANNELS 3 Zrotation Xrotation Yrotation
										JOINT LeftHandThumb2
										{
											OFFSET 4.52789 0.00000 0.00000
											CHANNELS 3 Zrotation Xrotation Yrotation
											JOINT LeftHandThumb3
											{
												OFFSET 2.46977 0.00000 0.00000
												CHANNELS 3 Zrotation Xrotation Yrotation
												End site
												{
													OFFSET 0.00000 0.00000 0.00000
												}
											}
										}
									}
									JOINT LeftHandIndex1
									{
										OFFSET 14.26970 0.00000 2.88139
										CHANNELS 3 Zrotation Xrotation Yrotation
										JOINT LeftHandIndex2
										{
											OFFSET 5.48836 0.00000 0.00000
											CHANNELS 3 Zrotation Xrotation Yrotation
											JOINT LeftHandIndex3
											{
												OFFSET 3.01859 0.00000 0.00000
												CHANNELS 3 Zrotation Xrotation Yrotation
												End site
												{
													OFFSET 0.00000 0.00000 0.00000
												}
											}
										}
									}
									JOINT LeftHandMiddle1
									{
										OFFSET 14.26970 0.00000 -0.09147
										CHANNELS 3 Zrotation Xrotation Yrotation
										JOINT LeftHandMiddle2
										{
											OFFSET 6.17440 0.00000 0.00000
											CHANNELS 3 Zrotation Xrotation Yrotation
											JOINT LeftHandMiddle3
											{
												OFFSET 3.56744 0.00000 0.00000
												CHANNELS 3 Zrotation Xrotation Yrotation
												End site
												{
													OFFSET 0.00000 0.00000 0.00000
												}
											}
										}
									}
									JOINT LeftHandRing1
									{
										OFFSET 12.69180 0.00000 -3.06433
										CHANNELS 3 Zrotation Xrotation Yrotation
										JOINT LeftHandRing2
										{
											OFFSET 5.62556 0.00000 0.00000
											CHANNELS 3 Zrotation Xrotation Yrotation
											JOINT LeftHandRing3
											{
												OFFSET 3.56744 0.00000 0.00000
												CHANNELS 3 Zrotation Xrotation Yrotation
												End site
												{
													OFFSET 0.00000 0.00000 0.00000
												}
											}
										}
									}
									JOINT LeftHandPinky1
									{
										OFFSET 11.11390 0.00000 -6.03719
										CHANNELS 3 Zrotation Xrotation Yrotation
										JOINT LeftHandPinky2
										{
											OFFSET 4.52789 0.00000 0.00000
											CHANNELS 3 Zrotation Xrotation Yrotation
											JOINT LeftHandPinky3
											{
												OFFSET 2.46976 0.00000 0.00000
												CHANNELS 3 Zrotation Xrotation Yrotation
												End site
												{
													OFFSET 0.00000 0.00000 0.00000
												}
											}
										}
									}
								}
							}
						}
					}
					JOINT pCube4
					{
						OFFSET 0.00000 10.91090 1.10792
						CHANNELS 3 Zrotation Xrotation Yrotation
						End site
						{
							OFFSET 0.00000 0.00000 0.00000
						}
					}
				}
			}
		}
	}
	JOINT RightUpLeg
	{
		OFFSET -9.98441 0.00000 0.00000
		CHANNELS 3 Zrotation Xrotation Yrotation
		JOINT RightLeg
		{
			OFFSET 0.00000 -42.11790 0.00000
			CHANNELS 3 Zrotation Xrotation Yrotation
			JOINT RightFoot
			{
				OFFSET 0.00000 -45.00020 -0.00001
				CHANNELS 3 Zrotation Xrotation Yrotation
				JOINT RightForeFoot
				{
					OFFSET 0.00000 -3.74820 0.00000
					CHANNELS 3 Zrotation Xrotation Yrotation
					JOINT RightToeBase
					{
						OFFSET 0.00000 0.06325 14.43120
						CHANNELS 3 Zrotation Xrotation Yrotation
						End site
						{
							OFFSET 0.00000 0.00000 0.00000
						}
					}
				}
			}
		}
	}
	JOINT LeftUpLeg
	{
		OFFSET 9.98441 0.00000 0.00000
		CHANNELS 3 Zrotation Xrotation Yrotation
		JOINT LeftLeg
		{
			OFFSET 0.00000 -42.11800 0.00000
			CHANNELS 3 Zrotation Xrotation Yrotation
			JOINT LeftFoot
			{
				OFFSET 0.00000 -45.00070 0.00000
				CHANNELS 3 Zrotation Xrotation Yrotation
				JOINT LeftForeFoot
				{
					OFFSET 0.00000 -3.74824 0.00000
					CHANNELS 3 Zrotation Xrotation Yrotation
					JOINT LeftToeBase
					{
						OFFSET 0.00000 0.06325 14.43110
						CHANNELS 3 Zrotation Xrotation Yrotation
						End site
						{
							OFFSET 0.00000 0.00000 0.00000
						}
					}
				}
			}
		}
	}
}
MOTION
Frames: 4
Frame Time: 0.050000
-0.003994570157980089 0.02069713063260516 0.04238603630402471 -0.0012365495188325613 -0.031356318068373724 0.020121997206502144 6.2730010413424795 1.5679789062004084 -2.461258848076763 -0.7120861010118896 3.4141387811569777 0.38456553790851716 -0.5573270577378785 -1.244846217366842 1.6309827079577979 -0.3144741183948379 -0.4519939989842573 -0.14573003014684688 0.21121256622961776 12.730002139443444 -1.826661928098956 0.3356691214137838 0.034500267024382844 -4.404772215870536 1.0066999002034915 -16.165625543106497 -0.4163334073397087 -10.818514786916907 3.7240695633140457 -17.169126154602697 79.64284648679379 13.637305568590552 20.555077521955724 0.803786179223482 -3.0646303045579675 111.64030745105359 4.2135405024803925 0.16755445695013557 1.7260732863492194 4.54074006829666 -0.09100794155363245 -1.6380728633850032 0.034800028492006634 0.02340239417759912 -56.275705818717945 -0.03924550593615069 -0.004246150136162417 -56.27464105079214 -38.72144285673695 -0.034774832060562706 -0.020140096391393723 0.0450379830571956 -0.004536302286731454 -0.04085557734047461 -0.030876641695655058 -0.03005306363913833 -0.026223215148911752 -36.65622496775467 -0.022373606851914103 -0.0010042514187923641 0.045768562013042684 0.04924916927180735 0.00634947735994384 -0.031173284195386418 0.013542689742616387 0.01621421054001824 -19.7704152621369 0.03008335310899963 0.028828116829518486 0.04890367507958236 -0.007032046654509045 0.04220293526664727 0.03675900811730412 -0.04962481244675293 0.03537341142032609 24.06641779658552 -0.026181563947411356 0.028926571924951124 28.829161964621452 -0.028546141146341 0.004863408402866154 28.85479513075047 -0.016430620990311756 0.04982507584796515 10.950623208909336 2.490319315924953 14.91937861066934 -73.22954316944336 23.977502252449156 -18.775428670256005 6.91234846515442 -7.7039369800581365 -101.50995523887266 -5.859072907885359 -4.8668438240891865 -2.0774039453008024 -0.438505705664402 0.0652401047329516 -8.160763141441075 0.019067181037841288 -0.016817640039287585 44.55589786592427 -0.040529785913777545 -0.0033792714008557914 44.61011424321842 12.449241406245761 -0.028171437002608418 0.03742385740144435 0.010720534145570018 -0.0154353013050751 0.017266558001409707 0.016142472492412824 -0.026029372700640225 0.0490187937094393 11.115325352547151 -0.00640553614723372 0.04845148082516081 0.0034079764275068533 0.04713961968265035 -0.02663296414977459 -0.0488953829937703 -0.04833928889693289 0.015333155691819008 4.7671246421512175 -0.046190593136097795 0.030184937123866884 0.007214944254733396 -0.021741748252695536 0.04209082542446559 -0.0332910623783567 -0.020309608843538832 0.02142968928785534 -5.637294214658705 -0.04699256606927095 0.0019970628226173644 -6.740799716267309 0.025613792831991243 0.01743363048206486 -6.716245573086828 -0.017352278317816872 -0.0451921568208297 -0.009185454016039752 0.027910618083104886 -0.018005674739195208 8.013035824152537 3.4859763537094457 -19.196492096497906 0.022195996888295984 10.432218179836942 -0.0039008667820476135 -5.580329248274653 -15.692471109439325 3.1846012669505406 -0.03895563518742126 -0.0015148174016094873 0.022446608368914638 -0.03966647087518393 4.727810681051859 -0.025932722812245335 12.41035238305221 -8.232307231889227 6.850796692926659 -0.00826415322466599 46.37736454277336 0.03559124372342611 -4.311741993054898 -14.710341878026027 -3.809451056828394 -0.030456205780963093 0.030015071835017153 -0.03963395891887359 -0.032372402421495285 -10.742179347802397 -0.01916739961057908 
-0.03204654439982127 0.008400185367157057 -0.0026708441678922096 0.01819155623224208 -0.008153692627062005 -0.02768858387010923 6.380285312557971 1.6717556099739812 -2.434019349793732 -0.7474414111482736 3.4822240498858634 0.38705455768490427 -0.5488719126755824 -1.2687535789078757 1.7664028747618874 -0.23957452240135169 -0.49048278408035484 -0.1848316524199235 0.2813371288488899 12.895186749787134 -1.9570089756721816 0.3214046965369022 0.05172898893151903 -5.002383259053161 1.0496013707772127 -16.19132580547622 -0.48664022274356356 -11.083583546482899 3.761586198025216 -17.04888839078115 78.08927525534119 12.064514716294353 22.419651408662542 1.14174570729746 -2.8173725873273487 111.27302154653871 4.022407130400526 0.15368267918800108 1.8767701722329877 4.569934960806406 -0.12029570845344362 -1.5699262235569398 -0.024500895407506253 0.01069083244452509 -56.22583675918073 0.038747856877173956 0.040216055157941466 -56.21455736990106 -38.78575137739505 -0.016113068009699406 -0.012957820384588195 0.02063641047947823 -0.025263321707229752 -0.016813993431114522 0.031584198305785224 0.027887159223514212 -0.04152546310227698 -36.730440335649114 -0.04513641302735573 0.006256272783533157 0.01368444745083474 0.034423526256992125 -0.012895581564598482 -0.010139239232727838 -0.048871322842334766 0.013706750810338716 -19.752797106633874 -0.026402567934441196 -0.003064793956444647 -0.04586137550326536 -0.030991362507315996 -0.0032413981769432534 -0.009399220311236325 0.011600958996405413 -0.007186308251848872 24.054687500674717 0.02915306803615633 0.02782020603939138 28.909936132716116 0.003536945332961415 0.007450909270902311 28.897735725377483 -0.018955635145798885 0.02506880070445474 11.07884082357307 2.52359635159947 14.880936301329346 -72.57433123647284 22.27910168706132 -19.631266636347895 6.803261406290952 -7.110262224478639 -101.23528629086651 -5.6892800697406996 -4.220917531859662 -2.642453844599969 -0.4786891620998794 0.04799709512667546 -8.129480818754795 0.006111413619961286 0.032472843051513704 44.54591356110174 -0.03437607196268158 0.008507572601900675 44.52718268769158 12.490967072455227 0.023074342227881878 0.003977229355730344 -0.01149113015659842 -0.012488524992201011 -0.013464956440064192 0.015269363246098016 -0.039068100975892556 0.024195701016430975 11.155122429738784 -0.007858440840178033 -0.00023227869558230905 -0.04130770057478284 -0.0025737828966336173 -0.018995264780317087 -0.03657596717542394 0.03788665821174209 -0.013547269023828233 4.801279325554254 -0.03890860498086512 -0.01800990839818073 -0.012861718447667389 0.0012306243369100587 -0.026064129056703127 0.03987747446331577 -0.0010412519907908662 -0.018190106476382212 -5.610600804503714 0.02757079233650229 0.015209634328809308 -6.697241466186355 -0.03141722535911055 -0.011020972290467449 -6.68607100610182 -0.03856890360781493 0.041948082223831194 -0.009168208343624131 -0.025023090836765943 -0.0035544626918641437 8.012461906585342 3.501085291350647 -19.25101481764278 -0.014007165412362318 10.359499882799893 0.008412247155853609 -5.626935562311517 -15.64349558416026 3.209846766773886 0.006233510992247426 0.04841787079130768 -0.018660318104637516 0.04837686282148613 4.718561584937673 0.009202256544832723 12.428196025286258 -8.229476035743138 6.867548985806088 -0.025541775990226508 46.35357875964563 -0.027593805817906977 -4.329207125877117 -14.731062037437031 -3.874252881406409 -0.0017040806230859552 -0.014641055723128998 -0.0025965581454284233 -0.007777870819108959 -10.791241522203462 -0.04491320516236463 
0.028501652089029522 -0.044491781968755965 0.03925970349527497 -0.01764372123339365 -0.010078914552818093 -0.0262628921510846 6.4993169349529545 1.820361898740267 -2.4937001014601807 -0.6853998383832748 3.548499644008528 0.41227008519953023 -0.5415872455826678 -1.2320366764574482 1.8809080883465614 -0.1680951895611829 -0.5251329714013615 -0.14880933766782384 0.2989866048899433 13.282714123371107 -2.2388602825492407 0.21805806061770525 0.15787067916089284 -5.688877826706083 1.0549807712488244 -16.096497742931277 -0.516891618153249 -11.661752993923615 3.842135196176386 -16.96890336873008 76.05438752712013 10.166645801338698 25.30151296177057 0.6017019807710231 -2.7977133299099646 110.79117244767654 3.806792134669298 0.18627352516566376 2.0305388978612244 4.480335007731603 -0.09924461346425201 -1.623693863690609 -0.019664888876423297 0.03298244383315933 -56.224056794130135 -0.026789913888668148 -0.03838248685989319 -56.268521710275294 -38.78481666484877 -0.01857539965367433 -0.023674921839466633 0.028280684364544055 -0.032200702209749174 -0.01984184909020938 -0.002197967983089321 0.02389061992264864 -0.03257252042307098 -36.735886692784995 0.0016682010815527763 -0.00985730741767491 -0.01122979575949317 -0.0335867900941117 -0.024210110397665536 -0.005632260873524473 -0.01338350073925677 0.031824698029734165 -19.789494590525127 -0.0023888712627566557 -0.04952735548878743 -0.032797330984193636 -0.02275719683781157 -0.03329857501904578 0.03197223899228055 -0.010513834565982347 -0.012992535124932043 24.072681345453883 0.021253264213005614 -0.04558098177016674 28.82878805522611 0.004328850437570477 -0.03920888156033074 28.846861912790317 -0.026541649397772912 -0.02858915157704477 11.361003369605362 2.533001263263567 14.916184282975266 -71.10922389437243 20.297083039608125 -21.806347131739216 8.063213173150835 -6.888199360240862 -101.5664686296438 -5.3970026728906895 -3.241129232961506 -3.469560971829396 -0.42762859273811327 0.03352521083380462 -8.105476751545822 0.018370454680947595 0.02889508296828362 44.55431808025013 0.01597070887985264 0.017751676053273775 44.60014862452231 12.448593480757228 -0.031669186272999666 -0.004766202222814261 -0.016241123250289823 0.024941685438331924 0.037533864451679784 0.03611044570729204 -0.019855604561145285 -0.007955428636016698 11.085000522755537 0.017598673265307792 0.0161578135656648 -0.025921320668238136 -0.03454572044642481 0.03429911497086081 0.04687841536293488 -0.018804838006948776 -0.005854242689467038 4.746627528721962 -0.027547360487820992 -0.025351951002984215 0.011458931306618635 -0.0012897079542896058 -0.0014134724011800966 -0.04432309786139255 -0.03604876274026829 -0.036128436696114805 -5.590303652150554 0.02311283756218993 0.024780429700471913 -6.755285891608019 0.04162673364772869 0.017016895522281868 -6.71259118560021 -0.01453963048717902 0.029164336949460756 -0.024547804288955387 0.032089879081725205 0.0007874798955535953 8.041576791554208 3.4689908481073273 -19.24407204743823 -0.030819545935742775 10.371748111671348 0.05663783799189165 -5.609119746853668 -15.619161053580765 3.2152710801178856 -0.012997291320912268 0.026560791461372104 -0.01525967463812382 0.021235161353980465 4.712379434779788 0.04989881638937576 12.448500670752704 -8.216299362017704 6.910006354266336 0.010074030814238242 46.38560183984905 0.02442891624249181 -4.341283110969716 -14.751532320181495 -3.8738845584762283 0.03381982272384627 0.00776352023595206 0.036998993842404244 0.02706253963481624 -10.711064071791764 0.04773685839699257 
0.034463852231156764 0.010536543241309619 0.02172048097292169 -0.008801256195940053 0.006667337575171944 -0.02946860289667085 6.602745748306675 1.9294701936449659 -2.499431743235477 -0.7382680862373927 3.5682795493943 0.4451291741711751 -0.5231492390417726 -1.250126370940429 1.9664973678213342 -0.17414117848922164 -0.5230200254501215 -0.12306245270121853 0.36037937374230167 13.72292961416833 -2.4593623806351523 0.2789817225453103 0.25100081018399595 -6.339545723238539 1.1680918815549055 -15.92636115043744 -0.49621796099073384 -12.147152503584337 4.023107471394313 -16.842082449467814 74.0940861374163 8.775192214052197 28.524788856775356 -0.7236106913977941 -2.784244322988829 110.2461652271135 3.9429250424457876 0.17241342240219965 2.16378342165931 4.4931814848532925 -0.10316283484463586 -1.5566404412858794 -0.022972996319904647 0.006629553740031451 -56.27437256814291 -0.012343759452046266 -0.022336239583183856 -56.23362027499198 -38.73371547937252 -0.03990816726813532 0.007497147462329404 -0.019738694461436057 0.04179660681124593 -0.03965331215153658 -0.013012306787555576 0.015452961059261614 -0.02208983029459677 -36.69014908603231 -0.00986042495325476 0.03476708494739024 -0.010814108561722638 -0.004697462608190321 -0.004497351521658265 0.001828480129225908 0.012565123856053564 -0.012318846101637426 -19.730919184545442 -0.021442874796751447 0.013708506214512332 -0.017796071859304492 0.009351839489437803 0.01408873782254346 -0.04864664741898178 0.04212433962092364 -0.039207145632375054 24.006794316289692 0.026167283834722676 -0.037143039192066234 28.859477062279655 0.027100488410370882 -0.02617638817705415 28.88716778015557 0.011173637916841742 0.039836877391223144 11.792412721410004 2.6264949576758085 14.88094325621454 -69.43444001918719 18.7035172343671 -24.69031593242436 10.204322115260853 -6.841620530874966 -102.43196139319805 -5.1677294846224 -2.0339444102689677 -4.178660647402048 -0.45345767046553526 0.07476621676489113 -8.141247254419493 0.04899804571079831 -0.018673963864353237 44.54780024663451 -0.04077226008749443 0.01014744591865338 44.55897146031736 12.50384464174239 0.02528296595061009 0.04961676991176808 0.01137285051124112 -0.0070624478608235135 0.00491593477040325 0.015411589728319276 0.033974410510809454 0.0011852630310922872 11.099908615046184 -0.019119676229153396 -0.012011463843509726 0.020579691110614688 0.049371484899325004 -0.019080309599206667 -0.0046175774037144 0.04940177974805277 0.02871655240642927 4.747427763752431 0.02863781667050954 -0.015296223542006927 -0.01594108113451762 0.021863024921649293 0.017693082044544114 -0.008476725978178062 -0.01559796964030455 0.0021440682060932833 -5.6126106452410225 -0.018184165292645375 0.023621599794703855 -6.674352339870607 0.0068188034897676275 0.02158070526962055 -6.73666548525517 -0.01574622390980955 0.015520498979110108 0.005136214657066705 0.0048340319711837046 -0.0037525652960157655 8.049717931394405 3.5425609806799017 -19.255646252555472 0.02082530508101418 10.388773901600015 0.013632157761530027 -5.6358187701588776 -15.647699752884824 3.1988594519073392 -0.0057131422181997005 -0.018935465986165308 0.03477673238182849 0.034931401724103 4.695922220586988 0.04898510598689349 12.474923927749167 -8.230851242233458 6.870676122969033 0.0432975278857715 46.35293370175158 0.0292979500813895 -4.301910973260192 -14.792174805576108 -3.816774982946863 0.01238964635857634 -0.003224848460926465 0.019768369375320984 0.04223600989639986 -10.701558029140656 -0.026449424665309352 
